<svg xmlns="http://www.w3.org/2000/svg" width="108" height="29" viewBox="0 0 108 29">
    <g fill="#FFF" fill-rule="evenodd">
        <path d="M22.416 23.227c-.046-.007-.087-.027-.135-.027H8.72c-.048 0-.09.02-.135.027-3.98-2.364-6.646-6.699-6.646-11.636v.009c9.687 0 17.564-.01 27.125-.01 0 4.938-2.666 9.273-6.647 11.637zM21.312 26.1a.98.98 0 0 1-.968.967h-9.688a.98.98 0 0 1-.969-.967v-.967h11.626v.967zM17.33 9.667h-2.01a2.904 2.904 0 0 0-2.726-1.934 2.904 2.904 0 0 0-2.727 1.934h-2.02A4.838 4.838 0 0 1 9.174 7.22a4.83 4.83 0 0 1 3.42-1.421c.967 0 1.887.289 2.667.79a4.908 4.908 0 0 1 2.07 3.077zM6.43 4.482a8.693 8.693 0 0 1 6.164-2.549c2.182 0 4.182.8 5.716 2.139l.008.006a8.546 8.546 0 0 1 2.04 2.617c-.002.025-.014.047-.014.072 0 .31.155.573.382.75.26.683.446 1.4.53 2.15H19.3a6.83 6.83 0 0 0-2.97-4.69l-.013-.008a6.869 6.869 0 0 0-3.722-1.102c-3.406.004-6.227 2.528-6.703 5.8H3.932A8.657 8.657 0 0 1 6.43 4.482zm16.82 5.185h-.05a11.09 11.09 0 0 0-.104-.75c.099.23.154.484.154.75zm-1.938-5.8c1.605 0 3.052.648 4.108 1.701a5.768 5.768 0 0 1 1.705 4.099h-1.938a3.872 3.872 0 0 0-3.071-3.781 10.617 10.617 0 0 0-1.284-1.975c.16-.013.315-.044.48-.044zm7.75 5.8c-.001-4.267-3.473-7.732-7.75-7.734-.752 0-1.482.115-2.173.326A10.595 10.595 0 0 0 12.594 0C7.037.001 2.478 4.25 1.987 9.667h-.11A1.87 1.87 0 0 0 0 11.524v.076c0 5.708 2.906 10.7 7.75 13.378V26.1a2.905 2.905 0 0 0 2.906 2.9h9.688a2.905 2.905 0 0 0 2.906-2.9v-1.122C28.094 22.3 30.999 17.308 31 11.6a1.936 1.936 0 0 0-1.938-1.933z"/>
        <text font-family="Montserrat-Medium, Montserrat" font-size="18.6" font-weight="400" letter-spacing=".823" transform="translate(0 -6)">
            <tspan x="39" y="34">Starter</tspan>
        </text>
        <text font-family="Montserrat-Regular, Montserrat" font-size="14" letter-spacing=".659" transform="translate(0 -6)">
            <tspan x="39.389" y="14">app</tspan>
        </text>
    </g>
</svg>
